<?xml version="1.0" encoding="UTF-8" standalone="no"?><svg xmlns="http://www.w3.org/2000/svg" xmlns:xlink="http://www.w3.org/1999/xlink" clip-rule="evenodd" stroke-miterlimit="10" viewBox="0 0 1024 768"><desc>SVG generated by Keynote</desc><defs></defs><g transform="matrix(1.00, 0.00, -0.00, -1.00, 0.0, 768.0)"><path d="M 0.0 768.0 L 1024.0 768.0 L 1024.0 0.0 L 0.0 0.0 Z M 0.0 768.0 " fill="#142735"></path><text xml:space="preserve" font-family="BrandonGrotesque-Black,Brandon Grotesque" font-weight="bold" font-size="56.0" fill="#FFFFFF" transform="matrix(1.00, 0.00, -0.00, -1.00, 104.0, 504.3)">O</text><text xml:space="preserve" font-family="BrandonGrotesque-Black,Brandon Grotesque" font-weight="bold" font-size="56.0" fill="#FFFFFF" transform="matrix(1.00, 0.00, -0.00, -1.00, 148.2, 504.3)">P</text><text xml:space="preserve" font-family="BrandonGrotesque-Black,Brandon Grotesque" font-weight="bold" font-size="56.0" fill="#FFFFFF" transform="matrix(1.00, 0.00, -0.00, -1.00, 181.2, 504.3)">E</text><text xml:space="preserve" font-family="BrandonGrotesque-Black,Brandon Grotesque" font-weight="bold" font-size="56.0" fill="#FFFFFF" transform="matrix(1.00, 0.00, -0.00, -1.00, 214.0, 504.3)">N</text><text xml:space="preserve" font-family="BrandonGrotesque-Black,Brandon Grotesque" font-weight="bold" font-size="56.0" fill="#FFFFFF" transform="matrix(1.00, 0.00, -0.00, -1.00, 257.3, 504.3)"> </text><text xml:space="preserve" font-family="BrandonGrotesque-Black,Brandon Grotesque" font-weight="bold" font-size="56.0" fill="#FFFFFF" transform="matrix(1.00, 0.00, -0.00, -1.00, 269.6, 504.3)">S</text><text xml:space="preserve" font-family="BrandonGrotesque-Black,Brandon Grotesque" font-weight="bold" font-size="56.0" fill="#FFFFFF" transform="matrix(1.00, 0.00, -0.00, -1.00, 300.3, 504.3)">O</text><text xml:space="preserve" font-family="BrandonGrotesque-Black,Brandon Grotesque" font-weight="bold" font-size="56.0" fill="#FFFFFF" transform="matrix(1.00, 0.00, -0.00, -1.00, 344.5, 504.3)">U</text><text xml:space="preserve" font-family="BrandonGrotesque-Black,Brandon Grotesque" font-weight="bold" font-size="56.0" fill="#FFFFFF" transform="matrix(1.00, 0.00, -0.00, -1.00, 384.9, 504.3)">R</text><text xml:space="preserve" font-family="BrandonGrotesque-Black,Brandon Grotesque" font-weight="bold" font-size="56.0" fill="#FFFFFF" transform="matrix(1.00, 0.00, -0.00, -1.00, 422.4, 504.3)">C</text><text xml:space="preserve" font-family="BrandonGrotesque-Black,Brandon Grotesque" font-weight="bold" font-size="56.0" fill="#FFFFFF" transform="matrix(1.00, 0.00, -0.00, -1.00, 460.1, 504.3)">E</text><text xml:space="preserve" font-family="OpenSans-Semibold,Open Sans" font-weight="bold" font-size="36.0" fill="#FFFFFF" transform="matrix(1.00, 0.00, -0.00, -1.00, 104.0, 429.5)">R</text><text xml:space="preserve" font-family="OpenSans-Semibold,Open Sans" font-weight="bold" font-size="36.0" fill="#FFFFFF" transform="matrix(1.00, 0.00, -0.00, -1.00, 127.0, 429.5)">i</text><text xml:space="preserve" font-family="OpenSans-Semibold,Open Sans" font-weight="bold" font-size="36.0" fill="#FFFFFF" transform="matrix(1.00, 0.00, -0.00, -1.00, 137.0, 429.5)">g</text><text xml:space="preserve" font-family="OpenSans-Semibold,Open Sans" font-weight="bold" font-size="36.0" fill="#FFFFFF" transform="matrix(1.00, 0.00, -0.00, -1.00, 157.1, 429.5)">h</text><text xml:space="preserve" font-family="OpenSans-Semibold,Open Sans" font-weight="bold" font-size="36.0" fill="#FFFFFF" transform="matrix(1.00, 0.00, -0.00, -1.00, 179.9, 429.5)">t</text><text xml:space="preserve" font-family="OpenSans-Semibold,Open Sans" font-weight="bold" font-size="36.0" fill="#FFFFFF" transform="matrix(1.00, 0.00, -0.00, -1.00, 194.1, 429.5)"> </text><text xml:space="preserve" font-family="OpenSans-Semibold,Open Sans" font-weight="bold" font-size="36.0" fill="#FFFFFF" transform="matrix(1.00, 0.00, -0.00, -1.00, 203.4, 429.5)">n</text><text xml:space="preserve" font-family="OpenSans-Semibold,Open Sans" font-weight="bold" font-size="36.0" fill="#FFFFFF" transform="matrix(1.00, 0.00, -0.00, -1.00, 226.3, 429.5)">o</text><text xml:space="preserve" font-family="OpenSans-Semibold,Open Sans" font-weight="bold" font-size="36.0" fill="#FFFFFF" transform="matrix(1.00, 0.00, -0.00, -1.00, 247.5, 429.5)">w</text><text xml:space="preserve" font-family="OpenSans-Semibold,Open Sans" font-weight="bold" font-size="36.0" fill="#FFFFFF" transform="matrix(1.00, 0.00, -0.00, -1.00, 276.9, 429.5)"> </text><text xml:space="preserve" font-family="OpenSans-Semibold,Open Sans" font-weight="bold" font-size="36.0" fill="#FFFFFF" transform="matrix(1.00, 0.00, -0.00, -1.00, 286.3, 429.5)">M</text><text xml:space="preserve" font-family="OpenSans-Semibold,Open Sans" font-weight="bold" font-size="36.0" fill="#FFFFFF" transform="matrix(1.00, 0.00, -0.00, -1.00, 319.5, 429.5)">a</text><text xml:space="preserve" font-family="OpenSans-Semibold,Open Sans" font-weight="bold" font-size="36.0" fill="#FFFFFF" transform="matrix(1.00, 0.00, -0.00, -1.00, 340.4, 429.5)">p</text><text xml:space="preserve" font-family="OpenSans-Semibold,Open Sans" font-weight="bold" font-size="36.0" fill="#FFFFFF" transform="matrix(1.00, 0.00, -0.00, -1.00, 362.8, 429.5)">b</text><text xml:space="preserve" font-family="OpenSans-Semibold,Open Sans" font-weight="bold" font-size="36.0" fill="#FFFFFF" transform="matrix(1.00, 0.00, -0.00, -1.00, 385.2, 429.5)">o</text><text xml:space="preserve" font-family="OpenSans-Semibold,Open Sans" font-weight="bold" font-size="36.0" fill="#FFFFFF" transform="matrix(1.00, 0.00, -0.00, -1.00, 406.5, 429.5)">x</text><text xml:space="preserve" font-family="OpenSans-Semibold,Open Sans" font-weight="bold" font-size="36.0" fill="#FFFFFF" transform="matrix(1.00, 0.00, -0.00, -1.00, 426.3, 429.5)"> </text><text xml:space="preserve" font-family="OpenSans-Semibold,Open Sans" font-weight="bold" font-size="36.0" fill="#FFFFFF" transform="matrix(1.00, 0.00, -0.00, -1.00, 435.7, 429.5)">h</text><text xml:space="preserve" font-family="OpenSans-Semibold,Open Sans" font-weight="bold" font-size="36.0" fill="#FFFFFF" transform="matrix(1.00, 0.00, -0.00, -1.00, 458.5, 429.5)">a</text><text xml:space="preserve" font-family="OpenSans-Semibold,Open Sans" font-weight="bold" font-size="36.0" fill="#FFFFFF" transform="matrix(1.00, 0.00, -0.00, -1.00, 479.4, 429.5)">s</text><text xml:space="preserve" font-family="OpenSans-Semibold,Open Sans" font-weight="bold" font-size="36.0" fill="#FFFFFF" transform="matrix(1.00, 0.00, -0.00, -1.00, 496.9, 429.5)"> </text><text xml:space="preserve" font-family="OpenSans-Semibold,Open Sans" font-weight="bold" font-size="36.0" fill="#FFFFFF" transform="matrix(1.00, 0.00, -0.00, -1.00, 506.3, 429.5)">o</text><text xml:space="preserve" font-family="OpenSans-Semibold,Open Sans" font-weight="bold" font-size="36.0" fill="#FFFFFF" transform="matrix(1.00, 0.00, -0.00, -1.00, 527.5, 429.5)">v</text><text xml:space="preserve" font-family="OpenSans-Semibold,Open Sans" font-weight="bold" font-size="36.0" fill="#FFFFFF" transform="matrix(1.00, 0.00, -0.00, -1.00, 546.8, 429.5)">e</text><text xml:space="preserve" font-family="OpenSans-Semibold,Open Sans" font-weight="bold" font-size="36.0" fill="#FFFFFF" transform="matrix(1.00, 0.00, -0.00, -1.00, 567.5, 429.5)">r</text><text xml:space="preserve" font-family="OpenSans-Semibold,Open Sans" font-weight="bold" font-size="36.0" fill="#FFFFFF" transform="matrix(1.00, 0.00, -0.00, -1.00, 583.1, 429.5)"> </text><text xml:space="preserve" font-family="OpenSans-Semibold,Open Sans" font-weight="bold" font-size="36.0" fill="#FFFFFF" transform="matrix(1.00, 0.00, -0.00, -1.00, 592.4, 429.5)">3</text><text xml:space="preserve" font-family="OpenSans-Semibold,Open Sans" font-weight="bold" font-size="36.0" fill="#FFFFFF" transform="matrix(1.00, 0.00, -0.00, -1.00, 613.0, 429.5)">5</text><text xml:space="preserve" font-family="OpenSans-Semibold,Open Sans" font-weight="bold" font-size="36.0" fill="#FFFFFF" transform="matrix(1.00, 0.00, -0.00, -1.00, 633.5, 429.5)">0</text><text xml:space="preserve" font-family="OpenSans-Semibold,Open Sans" font-weight="bold" font-size="36.0" fill="#FFFFFF" transform="matrix(1.00, 0.00, -0.00, -1.00, 654.0, 429.5)"> </text><text xml:space="preserve" font-family="OpenSans-Semibold,Open Sans" font-weight="bold" font-size="36.0" fill="#FFFFFF" transform="matrix(1.00, 0.00, -0.00, -1.00, 663.4, 429.5)">p</text><text xml:space="preserve" font-family="OpenSans-Semibold,Open Sans" font-weight="bold" font-size="36.0" fill="#FFFFFF" transform="matrix(1.00, 0.00, -0.00, -1.00, 685.8, 429.5)">u</text><text xml:space="preserve" font-family="OpenSans-Semibold,Open Sans" font-weight="bold" font-size="36.0" fill="#FFFFFF" transform="matrix(1.00, 0.00, -0.00, -1.00, 708.7, 429.5)">b</text><text xml:space="preserve" font-family="OpenSans-Semibold,Open Sans" font-weight="bold" font-size="36.0" fill="#FFFFFF" transform="matrix(1.00, 0.00, -0.00, -1.00, 731.1, 429.5)">l</text><text xml:space="preserve" font-family="OpenSans-Semibold,Open Sans" font-weight="bold" font-size="36.0" fill="#FFFFFF" transform="matrix(1.00, 0.00, -0.00, -1.00, 741.1, 429.5)">i</text><text xml:space="preserve" font-family="OpenSans-Semibold,Open Sans" font-weight="bold" font-size="36.0" fill="#FFFFFF" transform="matrix(1.00, 0.00, -0.00, -1.00, 751.2, 429.5)">c</text><text xml:space="preserve" font-family="OpenSans-Semibold,Open Sans" font-weight="bold" font-size="36.0" fill="#FFFFFF" transform="matrix(1.00, 0.00, -0.00, -1.00, 769.0, 429.5)"> </text><text xml:space="preserve" font-family="OpenSans-Semibold,Open Sans" font-weight="bold" font-size="36.0" fill="#FFFFFF" transform="matrix(1.00, 0.00, -0.00, -1.00, 104.0, 380.5)">r</text><text xml:space="preserve" font-family="OpenSans-Semibold,Open Sans" font-weight="bold" font-size="36.0" fill="#FFFFFF" transform="matrix(1.00, 0.00, -0.00, -1.00, 118.8, 380.5)">e</text><text xml:space="preserve" font-family="OpenSans-Semibold,Open Sans" font-weight="bold" font-size="36.0" fill="#FFFFFF" transform="matrix(1.00, 0.00, -0.00, -1.00, 139.6, 380.5)">p</text><text xml:space="preserve" font-family="OpenSans-Semibold,Open Sans" font-weight="bold" font-size="36.0" fill="#FFFFFF" transform="matrix(1.00, 0.00, -0.00, -1.00, 162.0, 380.5)">o</text><text xml:space="preserve" font-family="OpenSans-Semibold,Open Sans" font-weight="bold" font-size="36.0" fill="#FFFFFF" transform="matrix(1.00, 0.00, -0.00, -1.00, 184.0, 380.5)">s</text><text xml:space="preserve" font-family="OpenSans-Semibold,Open Sans" font-weight="bold" font-size="36.0" fill="#FFFFFF" transform="matrix(1.00, 0.00, -0.00, -1.00, 201.5, 380.5)">i</text><text xml:space="preserve" font-family="OpenSans-Semibold,Open Sans" font-weight="bold" font-size="36.0" fill="#FFFFFF" transform="matrix(1.00, 0.00, -0.00, -1.00, 211.5, 380.5)">t</text><text xml:space="preserve" font-family="OpenSans-Semibold,Open Sans" font-weight="bold" font-size="36.0" fill="#FFFFFF" transform="matrix(1.00, 0.00, -0.00, -1.00, 225.7, 380.5)">o</text><text xml:space="preserve" font-family="OpenSans-Semibold,Open Sans" font-weight="bold" font-size="36.0" fill="#FFFFFF" transform="matrix(1.00, 0.00, -0.00, -1.00, 247.7, 380.5)">r</text><text xml:space="preserve" font-family="OpenSans-Semibold,Open Sans" font-weight="bold" font-size="36.0" fill="#FFFFFF" transform="matrix(1.00, 0.00, -0.00, -1.00, 263.2, 380.5)">i</text><text xml:space="preserve" font-family="OpenSans-Semibold,Open Sans" font-weight="bold" font-size="36.0" fill="#FFFFFF" transform="matrix(1.00, 0.00, -0.00, -1.00, 273.2, 380.5)">e</text><text xml:space="preserve" font-family="OpenSans-Semibold,Open Sans" font-weight="bold" font-size="36.0" fill="#FFFFFF" transform="matrix(1.00, 0.00, -0.00, -1.00, 294.0, 380.5)">s</text><text xml:space="preserve" font-family="OpenSans-Semibold,Open Sans" font-weight="bold" font-size="36.0" fill="#FFFFFF" transform="matrix(1.00, 0.00, -0.00, -1.00, 311.5, 380.5)"> </text><text xml:space="preserve" font-family="OpenSans-Semibold,Open Sans" font-weight="bold" font-size="36.0" fill="#FFFFFF" transform="matrix(1.00, 0.00, -0.00, -1.00, 320.8, 380.5)">o</text><text xml:space="preserve" font-family="OpenSans-Semibold,Open Sans" font-weight="bold" font-size="36.0" fill="#FFFFFF" transform="matrix(1.00, 0.00, -0.00, -1.00, 342.8, 380.5)">n</text><text xml:space="preserve" font-family="OpenSans-Semibold,Open Sans" font-weight="bold" font-size="36.0" fill="#FFFFFF" transform="matrix(1.00, 0.00, -0.00, -1.00, 365.7, 380.5)"> </text><text xml:space="preserve" font-family="OpenSans-Semibold,Open Sans" font-weight="bold" font-size="36.0" fill="#FFFFFF" transform="matrix(1.00, 0.00, -0.00, -1.00, 375.0, 380.5)">G</text><text xml:space="preserve" font-family="OpenSans-Semibold,Open Sans" font-weight="bold" font-size="36.0" fill="#FFFFFF" transform="matrix(1.00, 0.00, -0.00, -1.00, 401.1, 380.5)">i</text><text xml:space="preserve" font-family="OpenSans-Semibold,Open Sans" font-weight="bold" font-size="36.0" fill="#FFFFFF" transform="matrix(1.00, 0.00, -0.00, -1.00, 411.2, 380.5)">t</text><text xml:space="preserve" font-family="OpenSans-Semibold,Open Sans" font-weight="bold" font-size="36.0" fill="#FFFFFF" transform="matrix(1.00, 0.00, -0.00, -1.00, 425.3, 380.5)">h</text><text xml:space="preserve" font-family="OpenSans-Semibold,Open Sans" font-weight="bold" font-size="36.0" fill="#FFFFFF" transform="matrix(1.00, 0.00, -0.00, -1.00, 448.2, 380.5)">u</text><text xml:space="preserve" font-family="OpenSans-Semibold,Open Sans" font-weight="bold" font-size="36.0" fill="#FFFFFF" transform="matrix(1.00, 0.00, -0.00, -1.00, 471.0, 380.5)">b</text><text xml:space="preserve" font-family="OpenSans-Semibold,Open Sans" font-weight="bold" font-size="36.0" fill="#FFFFFF" transform="matrix(1.00, 0.00, -0.00, -1.00, 493.5, 380.5)">.</text><image xlink:href="7C4429C65CA8FFC4765B81C7031E68C1.png" width="1000.00" height="600.00" transform="matrix(0.63, 0.00, -0.00, -0.63, 411.0, 375.0)"></image></g></svg>