<?xml version="1.0" encoding="UTF-8" standalone="no"?><svg xmlns="http://www.w3.org/2000/svg" xmlns:xlink="http://www.w3.org/1999/xlink" clip-rule="evenodd" stroke-miterlimit="10" viewBox="0 0 1024 768"><desc>SVG generated by Keynote</desc><defs></defs><g transform="matrix(1.00, 0.00, -0.00, -1.00, 0.0, 768.0)"><path d="M 0.0 768.0 L 1024.0 768.0 L 1024.0 0.0 L 0.0 0.0 Z M 0.0 768.0 " fill="#142735"></path><text xml:space="preserve" font-family="OpenSans-Bold,Open Sans" font-weight="bold" font-size="80.0" fill="#FFFFFF" transform="matrix(1.00, 0.00, -0.00, -1.00, 219.2, 515.4)">D</text><text xml:space="preserve" font-family="OpenSans-Bold,Open Sans" font-weight="bold" font-size="80.0" fill="#FFFFFF" transform="matrix(1.00, 0.00, -0.00, -1.00, 278.5, 515.4)">e</text><text xml:space="preserve" font-family="OpenSans-Bold,Open Sans" font-weight="bold" font-size="80.0" fill="#FFFFFF" transform="matrix(1.00, 0.00, -0.00, -1.00, 325.8, 515.4)">s</text><text xml:space="preserve" font-family="OpenSans-Bold,Open Sans" font-weight="bold" font-size="80.0" fill="#FFFFFF" transform="matrix(1.00, 0.00, -0.00, -1.00, 365.5, 515.4)">i</text><text xml:space="preserve" font-family="OpenSans-Bold,Open Sans" font-weight="bold" font-size="80.0" fill="#FFFFFF" transform="matrix(1.00, 0.00, -0.00, -1.00, 390.0, 515.4)">g</text><text xml:space="preserve" font-family="OpenSans-Bold,Open Sans" font-weight="bold" font-size="80.0" fill="#FFFFFF" transform="matrix(1.00, 0.00, -0.00, -1.00, 435.2, 515.4)">n</text><text xml:space="preserve" font-family="OpenSans-Bold,Open Sans" font-weight="bold" font-size="80.0" fill="#FFFFFF" transform="matrix(1.00, 0.00, -0.00, -1.00, 487.8, 515.4)"> </text><text xml:space="preserve" font-family="OpenSans-Bold,Open Sans" font-weight="bold" font-size="80.0" fill="#FFFFFF" transform="matrix(1.00, 0.00, -0.00, -1.00, 508.6, 515.4)">c</text><text xml:space="preserve" font-family="OpenSans-Bold,Open Sans" font-weight="bold" font-size="80.0" fill="#FFFFFF" transform="matrix(1.00, 0.00, -0.00, -1.00, 549.7, 515.4)">u</text><text xml:space="preserve" font-family="OpenSans-Bold,Open Sans" font-weight="bold" font-size="80.0" fill="#FFFFFF" transform="matrix(1.00, 0.00, -0.00, -1.00, 602.3, 515.4)">s</text><text xml:space="preserve" font-family="OpenSans-Bold,Open Sans" font-weight="bold" font-size="80.0" fill="#FFFFFF" transform="matrix(1.00, 0.00, -0.00, -1.00, 642.1, 515.4)">t</text><text xml:space="preserve" font-family="OpenSans-Bold,Open Sans" font-weight="bold" font-size="80.0" fill="#FFFFFF" transform="matrix(1.00, 0.00, -0.00, -1.00, 676.8, 515.4)">o</text><text xml:space="preserve" font-family="OpenSans-Bold,Open Sans" font-weight="bold" font-size="80.0" fill="#FFFFFF" transform="matrix(1.00, 0.00, -0.00, -1.00, 726.4, 515.4)">m</text><text xml:space="preserve" font-family="OpenSans-Bold,Open Sans" font-weight="bold" font-size="80.0" fill="#FFFFFF" transform="matrix(1.00, 0.00, -0.00, -1.00, 805.0, 515.4)"> </text><text xml:space="preserve" font-family="OpenSans-Bold,Open Sans" font-weight="bold" font-size="80.0" fill="#FFFFFF" transform="matrix(1.00, 0.00, -0.00, -1.00, 403.4, 406.4)">m</text><text xml:space="preserve" font-family="OpenSans-Bold,Open Sans" font-weight="bold" font-size="80.0" fill="#FFFFFF" transform="matrix(1.00, 0.00, -0.00, -1.00, 481.9, 406.4)">a</text><text xml:space="preserve" font-family="OpenSans-Bold,Open Sans" font-weight="bold" font-size="80.0" fill="#FFFFFF" transform="matrix(1.00, 0.00, -0.00, -1.00, 530.2, 406.4)">p</text><text xml:space="preserve" font-family="OpenSans-Bold,Open Sans" font-weight="bold" font-size="80.0" fill="#FFFFFF" transform="matrix(1.00, 0.00, -0.00, -1.00, 580.8, 406.4)">s</text></g></svg>